<mxfile host="app.diagrams.net" modified="2021-03-12T01:48:42.038Z" agent="5.0 (Windows NT 10.0; Win64; x64) AppleWebKit/537.36 (KHTML, like Gecko) Chrome/88.0.4324.190 Safari/537.36" etag="DKlGNnbEjD-wsqbepjr3" version="14.4.7" type="github">
  <diagram id="L34lYgJ3pQMUeqo27ZOw" name="Page-1">
    <mxGraphModel dx="1422" dy="705" grid="1" gridSize="10" guides="1" tooltips="1" connect="1" arrows="1" fold="1" page="1" pageScale="1" pageWidth="850" pageHeight="1100" math="0" shadow="0">
      <root>
        <mxCell id="0" />
        <mxCell id="1" parent="0" />
        <mxCell id="cDs24W-nVfbfoMwEh_PL-1" value="&lt;u&gt;Ssn&lt;/u&gt;" style="rounded=0;whiteSpace=wrap;html=1;" vertex="1" parent="1">
          <mxGeometry x="110" y="110" width="90" height="40" as="geometry" />
        </mxCell>
        <mxCell id="cDs24W-nVfbfoMwEh_PL-2" value="Name" style="rounded=0;whiteSpace=wrap;html=1;" vertex="1" parent="1">
          <mxGeometry x="200" y="110" width="90" height="40" as="geometry" />
        </mxCell>
        <mxCell id="cDs24W-nVfbfoMwEh_PL-3" value="State&lt;span style=&quot;color: rgba(0 , 0 , 0 , 0) ; font-family: monospace ; font-size: 0px&quot;&gt;%3CmxGraphModel%3E%3Croot%3E%3CmxCell%20id%3D%220%22%2F%3E%3CmxCell%20id%3D%221%22%20parent%3D%220%22%2F%3E%3CmxCell%20id%3D%222%22%20value%3D%22Ssn%22%20style%3D%22rounded%3D0%3BwhiteSpace%3Dwrap%3Bhtml%3D1%3B%22%20vertex%3D%221%22%20parent%3D%221%22%3E%3CmxGeometry%20x%3D%22110%22%20y%3D%22110%22%20width%3D%2290%22%20height%3D%2240%22%20as%3D%22geometry%22%2F%3E%3C%2FmxCell%3E%3C%2Froot%3E%3C%2FmxGraphModel%3E&lt;/span&gt;" style="rounded=0;whiteSpace=wrap;html=1;" vertex="1" parent="1">
          <mxGeometry x="290" y="110" width="90" height="40" as="geometry" />
        </mxCell>
        <mxCell id="cDs24W-nVfbfoMwEh_PL-4" value="Street" style="rounded=0;whiteSpace=wrap;html=1;" vertex="1" parent="1">
          <mxGeometry x="380" y="110" width="90" height="40" as="geometry" />
        </mxCell>
        <mxCell id="cDs24W-nVfbfoMwEh_PL-5" value="City" style="rounded=0;whiteSpace=wrap;html=1;" vertex="1" parent="1">
          <mxGeometry x="470" y="110" width="90" height="40" as="geometry" />
        </mxCell>
        <mxCell id="cDs24W-nVfbfoMwEh_PL-6" value="&lt;font style=&quot;font-size: 21px&quot;&gt;Customer&lt;/font&gt;" style="text;html=1;strokeColor=none;fillColor=none;align=center;verticalAlign=middle;whiteSpace=wrap;rounded=0;" vertex="1" parent="1">
          <mxGeometry x="75" y="80" width="160" height="40" as="geometry" />
        </mxCell>
        <mxCell id="cDs24W-nVfbfoMwEh_PL-7" value="&lt;u&gt;Vin&lt;/u&gt;" style="rounded=0;whiteSpace=wrap;html=1;" vertex="1" parent="1">
          <mxGeometry x="110" y="210" width="90" height="40" as="geometry" />
        </mxCell>
        <mxCell id="cDs24W-nVfbfoMwEh_PL-8" value="Model" style="rounded=0;whiteSpace=wrap;html=1;" vertex="1" parent="1">
          <mxGeometry x="200" y="210" width="90" height="40" as="geometry" />
        </mxCell>
        <mxCell id="cDs24W-nVfbfoMwEh_PL-9" value="Price" style="rounded=0;whiteSpace=wrap;html=1;" vertex="1" parent="1">
          <mxGeometry x="290" y="210" width="90" height="40" as="geometry" />
        </mxCell>
        <mxCell id="cDs24W-nVfbfoMwEh_PL-12" value="&lt;font style=&quot;font-size: 21px&quot;&gt;Vehicle&lt;/font&gt;" style="text;html=1;strokeColor=none;fillColor=none;align=center;verticalAlign=middle;whiteSpace=wrap;rounded=0;" vertex="1" parent="1">
          <mxGeometry x="60" y="180" width="167" height="40" as="geometry" />
        </mxCell>
        <mxCell id="cDs24W-nVfbfoMwEh_PL-13" value="&lt;u&gt;Sid&lt;/u&gt;" style="rounded=0;whiteSpace=wrap;html=1;" vertex="1" parent="1">
          <mxGeometry x="110" y="310" width="90" height="40" as="geometry" />
        </mxCell>
        <mxCell id="cDs24W-nVfbfoMwEh_PL-14" value="Name" style="rounded=0;whiteSpace=wrap;html=1;" vertex="1" parent="1">
          <mxGeometry x="200" y="310" width="90" height="40" as="geometry" />
        </mxCell>
        <mxCell id="cDs24W-nVfbfoMwEh_PL-16" value="&lt;font style=&quot;font-size: 21px&quot;&gt;Salesperson&lt;/font&gt;" style="text;html=1;strokeColor=none;fillColor=none;align=center;verticalAlign=middle;whiteSpace=wrap;rounded=0;" vertex="1" parent="1">
          <mxGeometry x="87" y="278" width="160" height="40" as="geometry" />
        </mxCell>
        <mxCell id="cDs24W-nVfbfoMwEh_PL-31" style="edgeStyle=orthogonalEdgeStyle;rounded=0;orthogonalLoop=1;jettySize=auto;html=1;exitX=0.5;exitY=1;exitDx=0;exitDy=0;entryX=0;entryY=0.5;entryDx=0;entryDy=0;" edge="1" parent="1" source="cDs24W-nVfbfoMwEh_PL-17" target="cDs24W-nVfbfoMwEh_PL-13">
          <mxGeometry relative="1" as="geometry" />
        </mxCell>
        <mxCell id="cDs24W-nVfbfoMwEh_PL-17" value="&lt;u&gt;Sid&lt;/u&gt;" style="rounded=0;whiteSpace=wrap;html=1;" vertex="1" parent="1">
          <mxGeometry x="110" y="412" width="90" height="40" as="geometry" />
        </mxCell>
        <mxCell id="cDs24W-nVfbfoMwEh_PL-32" style="edgeStyle=orthogonalEdgeStyle;rounded=0;orthogonalLoop=1;jettySize=auto;html=1;exitX=0.5;exitY=1;exitDx=0;exitDy=0;entryX=0.213;entryY=1.15;entryDx=0;entryDy=0;entryPerimeter=0;" edge="1" parent="1" source="cDs24W-nVfbfoMwEh_PL-18" target="cDs24W-nVfbfoMwEh_PL-6">
          <mxGeometry relative="1" as="geometry">
            <mxPoint x="40" y="110" as="targetPoint" />
            <Array as="points">
              <mxPoint x="245" y="490" />
              <mxPoint x="40" y="490" />
              <mxPoint x="40" y="126" />
            </Array>
          </mxGeometry>
        </mxCell>
        <mxCell id="cDs24W-nVfbfoMwEh_PL-18" value="&lt;u&gt;Ssn&lt;/u&gt;" style="rounded=0;whiteSpace=wrap;html=1;" vertex="1" parent="1">
          <mxGeometry x="200" y="412" width="90" height="40" as="geometry" />
        </mxCell>
        <mxCell id="cDs24W-nVfbfoMwEh_PL-19" value="&lt;font style=&quot;font-size: 21px&quot;&gt;Sales&lt;/font&gt;" style="text;html=1;strokeColor=none;fillColor=none;align=center;verticalAlign=middle;whiteSpace=wrap;rounded=0;" vertex="1" parent="1">
          <mxGeometry x="56" y="382" width="160" height="40" as="geometry" />
        </mxCell>
        <mxCell id="cDs24W-nVfbfoMwEh_PL-33" style="edgeStyle=orthogonalEdgeStyle;rounded=0;orthogonalLoop=1;jettySize=auto;html=1;exitX=0.5;exitY=1;exitDx=0;exitDy=0;" edge="1" parent="1" source="cDs24W-nVfbfoMwEh_PL-20">
          <mxGeometry relative="1" as="geometry">
            <mxPoint x="110" y="220" as="targetPoint" />
            <Array as="points">
              <mxPoint x="335" y="520" />
              <mxPoint x="60" y="520" />
              <mxPoint x="60" y="220" />
            </Array>
          </mxGeometry>
        </mxCell>
        <mxCell id="cDs24W-nVfbfoMwEh_PL-20" value="&lt;u&gt;Vin&lt;span style=&quot;color: rgba(0 , 0 , 0 , 0) ; font-family: monospace ; font-size: 0px&quot;&gt;%3CmxGraphModel%3E%3Croot%3E%3CmxCell%20id%3D%220%22%2F%3E%3CmxCell%20id%3D%221%22%20parent%3D%220%22%2F%3E%3CmxCell%20id%3D%222%22%20value%3D%22Ssn%22%20style%3D%22rounded%3D0%3BwhiteSpace%3Dwrap%3Bhtml%3D1%3B%22%20vertex%3D%221%22%20parent%3D%221%22%3E%3CmxGeometry%20x%3D%22200%22%20y%3D%22412%22%20width%3D%2290%22%20height%3D%2240%22%20as%3D%22geometry%22%2F%3E%3C%2FmxCell%3E%3C%2Froot%3E%3C%2FmxGraphModel%3E&lt;/span&gt;&lt;/u&gt;" style="rounded=0;whiteSpace=wrap;html=1;" vertex="1" parent="1">
          <mxGeometry x="290" y="412" width="90" height="40" as="geometry" />
        </mxCell>
        <mxCell id="cDs24W-nVfbfoMwEh_PL-21" value="Date" style="rounded=0;whiteSpace=wrap;html=1;" vertex="1" parent="1">
          <mxGeometry x="380" y="412" width="90" height="40" as="geometry" />
        </mxCell>
        <mxCell id="cDs24W-nVfbfoMwEh_PL-36" style="edgeStyle=orthogonalEdgeStyle;rounded=0;orthogonalLoop=1;jettySize=auto;html=1;exitX=0;exitY=0.5;exitDx=0;exitDy=0;entryX=0.867;entryY=-0.05;entryDx=0;entryDy=0;entryPerimeter=0;" edge="1" parent="1" source="cDs24W-nVfbfoMwEh_PL-22" target="cDs24W-nVfbfoMwEh_PL-7">
          <mxGeometry relative="1" as="geometry">
            <mxPoint x="190" y="170" as="targetPoint" />
            <Array as="points">
              <mxPoint x="610" y="258" />
              <mxPoint x="610" y="190" />
              <mxPoint x="188" y="190" />
            </Array>
          </mxGeometry>
        </mxCell>
        <mxCell id="cDs24W-nVfbfoMwEh_PL-22" value="&lt;u&gt;Vin&lt;/u&gt;" style="rounded=0;whiteSpace=wrap;html=1;" vertex="1" parent="1">
          <mxGeometry x="623" y="238" width="90" height="40" as="geometry" />
        </mxCell>
        <mxCell id="cDs24W-nVfbfoMwEh_PL-23" value="Engine_size" style="rounded=0;whiteSpace=wrap;html=1;" vertex="1" parent="1">
          <mxGeometry x="713" y="238" width="90" height="40" as="geometry" />
        </mxCell>
        <mxCell id="cDs24W-nVfbfoMwEh_PL-24" value="&lt;font style=&quot;font-size: 21px&quot;&gt;Car&lt;/font&gt;" style="text;html=1;strokeColor=none;fillColor=none;align=center;verticalAlign=middle;whiteSpace=wrap;rounded=0;" vertex="1" parent="1">
          <mxGeometry x="560" y="206" width="160" height="40" as="geometry" />
        </mxCell>
        <mxCell id="cDs24W-nVfbfoMwEh_PL-35" style="edgeStyle=orthogonalEdgeStyle;rounded=0;orthogonalLoop=1;jettySize=auto;html=1;exitX=0;exitY=0.5;exitDx=0;exitDy=0;entryX=0.5;entryY=1;entryDx=0;entryDy=0;" edge="1" parent="1" source="cDs24W-nVfbfoMwEh_PL-25" target="cDs24W-nVfbfoMwEh_PL-7">
          <mxGeometry relative="1" as="geometry">
            <Array as="points">
              <mxPoint x="600" y="346" />
              <mxPoint x="600" y="290" />
              <mxPoint x="155" y="290" />
            </Array>
          </mxGeometry>
        </mxCell>
        <mxCell id="cDs24W-nVfbfoMwEh_PL-25" value="&lt;u&gt;Vin&lt;/u&gt;" style="rounded=0;whiteSpace=wrap;html=1;" vertex="1" parent="1">
          <mxGeometry x="623" y="326" width="90" height="40" as="geometry" />
        </mxCell>
        <mxCell id="cDs24W-nVfbfoMwEh_PL-26" value="Tonnage" style="rounded=0;whiteSpace=wrap;html=1;" vertex="1" parent="1">
          <mxGeometry x="713" y="326" width="90" height="40" as="geometry" />
        </mxCell>
        <mxCell id="cDs24W-nVfbfoMwEh_PL-27" value="&lt;font style=&quot;font-size: 21px&quot;&gt;Truck&lt;/font&gt;" style="text;html=1;strokeColor=none;fillColor=none;align=center;verticalAlign=middle;whiteSpace=wrap;rounded=0;" vertex="1" parent="1">
          <mxGeometry x="568" y="294" width="160" height="40" as="geometry" />
        </mxCell>
        <mxCell id="cDs24W-nVfbfoMwEh_PL-34" style="edgeStyle=orthogonalEdgeStyle;rounded=0;orthogonalLoop=1;jettySize=auto;html=1;exitX=0;exitY=0.5;exitDx=0;exitDy=0;" edge="1" parent="1" source="cDs24W-nVfbfoMwEh_PL-28">
          <mxGeometry relative="1" as="geometry">
            <mxPoint x="130" y="250" as="targetPoint" />
            <Array as="points">
              <mxPoint x="490" y="432" />
              <mxPoint x="490" y="270" />
              <mxPoint x="130" y="270" />
              <mxPoint x="130" y="250" />
            </Array>
          </mxGeometry>
        </mxCell>
        <mxCell id="cDs24W-nVfbfoMwEh_PL-28" value="&lt;u&gt;Vin&lt;/u&gt;" style="rounded=0;whiteSpace=wrap;html=1;" vertex="1" parent="1">
          <mxGeometry x="623" y="412" width="90" height="40" as="geometry" />
        </mxCell>
        <mxCell id="cDs24W-nVfbfoMwEh_PL-29" value="No_seats" style="rounded=0;whiteSpace=wrap;html=1;" vertex="1" parent="1">
          <mxGeometry x="713" y="412" width="90" height="40" as="geometry" />
        </mxCell>
        <mxCell id="cDs24W-nVfbfoMwEh_PL-30" value="&lt;font style=&quot;font-size: 21px&quot;&gt;SUV&lt;/font&gt;" style="text;html=1;strokeColor=none;fillColor=none;align=center;verticalAlign=middle;whiteSpace=wrap;rounded=0;" vertex="1" parent="1">
          <mxGeometry x="564" y="380" width="160" height="40" as="geometry" />
        </mxCell>
      </root>
    </mxGraphModel>
  </diagram>
</mxfile>
